<svg width="30" height="32" viewBox="0 0 30 32" fill="none" xmlns="http://www.w3.org/2000/svg">
<g clip-path="url(#clip0_231_688)">
<rect y="0.5" width="30" height="31" rx="15" fill="#0A0A0A"/>
<path d="M12.4801 16.732H17.1361L17.2481 17.66H12.3041L12.4801 16.732ZM14.5921 10.7L14.8481 11.068L11.7281 20.348C11.7281 20.412 11.7921 20.4707 11.9201 20.524C12.0588 20.5667 12.2295 20.604 12.4321 20.636C12.6455 20.6573 12.8695 20.668 13.1041 20.668H13.3121V21.5H9.52013V20.668H9.60013C9.90946 20.668 10.1601 20.62 10.3521 20.524C10.5441 20.428 10.6988 20.2093 10.8161 19.868L14.1281 10.076H15.8241L19.2481 20.028C19.3441 20.3053 19.4881 20.4813 19.6801 20.556C19.8721 20.6307 20.1121 20.668 20.4001 20.668H20.4801V21.5H16.2721V20.668H16.5121C16.7468 20.668 16.9708 20.6627 17.1841 20.652C17.3975 20.6413 17.5681 20.6253 17.6961 20.604C17.8348 20.572 17.9041 20.54 17.9041 20.508L14.5921 10.7Z" fill="#F5F5F5"/>
</g>
<defs>
<clipPath id="clip0_231_688">
<rect y="0.5" width="30" height="31" rx="15" fill="white"/>
</clipPath>
</defs>
</svg>
